<svg width="25" height="27" viewBox="0 0 25 27" fill="none" xmlns="http://www.w3.org/2000/svg">
<path d="M24.6275 8.82615L22.5651 1.61407C22.2833 0.666125 21.3994 0 20.413 0H17.2105V4.80378C17.2105 5.329 16.7749 5.76454 16.2497 5.76454C15.7245 5.76454 15.2889 5.329 15.2889 4.80378V0H9.52441V4.80378C9.52441 5.329 9.08886 5.76454 8.56365 5.76454C8.03844 5.76454 7.60289 5.329 7.60289 4.80378V0H4.40037C3.4268 0 2.54291 0.666125 2.24828 1.62688L0.198662 8.82615C-0.108781 9.9022 -0.0575404 10.9911 0.339572 11.875C0.621394 12.5026 1.01851 13.0535 1.53091 13.489C2.41481 14.2832 3.55491 14.7188 4.73343 14.7188C6.30907 14.7188 7.70537 13.963 8.57646 12.7973C9.44755 13.963 10.8438 14.7188 12.4195 14.7188C13.9951 14.7188 15.3914 13.963 16.2625 12.7973C17.1336 13.963 18.5299 14.7188 20.1055 14.7188C21.2969 14.7188 22.437 14.2832 23.2953 13.5018C23.8077 13.0535 24.2176 12.5026 24.4994 11.875C24.8965 10.9911 24.9478 9.9022 24.6403 8.82615H24.6275Z" fill="#7A9DE7"/>
<path d="M12.4067 19.8428C10.8182 19.8428 9.52438 21.1366 9.52438 22.725V26.2478H15.2889V22.725C15.2889 21.1366 13.9951 19.8428 12.4067 19.8428Z" fill="#7A9DE7"/>
<path d="M20.0927 15.9996C18.6836 15.9996 17.3257 15.5001 16.2497 14.629C14.0976 16.3839 10.7157 16.3839 8.56362 14.629C7.48757 15.5001 6.1297 15.9996 4.72059 15.9996C3.43958 15.9996 2.22262 15.5769 1.19781 14.8467V22.7249C1.19781 24.6721 2.77346 26.2477 4.72059 26.2477H7.60286V22.7249C7.60286 20.0733 9.75496 17.9212 12.4066 17.9212C15.0583 17.9212 17.2104 20.0733 17.2104 22.7249V26.2477H20.0927C22.0398 26.2477 23.6155 24.6721 23.6155 22.7249V14.8467C22.6035 15.5769 21.3865 15.9996 20.0927 15.9996Z" fill="#7A9DE7"/>
</svg>
