<svg width="50" height="50" viewBox="0 0 50 50" fill="none" xmlns="http://www.w3.org/2000/svg">
<rect width="50" height="50" rx="10" fill="#7A9DE7"/>
<mask id="path-2-outside-1_38_121" maskUnits="userSpaceOnUse" x="5" y="9" width="39" height="33" fill="black">
<rect fill="white" x="5" y="9" width="39" height="33"/>
<path d="M41.3015 10C42.4084 10 43.2434 10.971 42.7968 12.7769L37.3789 38.313C37.0002 40.1287 35.903 40.5656 34.3883 39.7209L21.4649 30.1764C21.4148 30.1405 21.374 30.0931 21.3458 30.0382C21.3177 29.9833 21.303 29.9225 21.303 29.8609C21.303 29.7992 21.3177 29.7384 21.3458 29.6835C21.374 29.6286 21.4148 29.5813 21.4649 29.5453L36.3885 16.0685C37.0682 15.4665 36.2429 15.1752 35.3496 15.7189L16.6199 27.5354C16.5631 27.5725 16.4986 27.5961 16.4313 27.6045C16.364 27.6129 16.2957 27.6059 16.2315 27.584L8.27938 25.0692C6.51224 24.5546 6.51224 23.3409 8.67747 22.4768L40.4956 10.2039C40.748 10.0828 41.022 10.0135 41.3015 10Z"/>
</mask>
<path d="M41.3015 10V9C41.2854 9 41.2693 9.00039 41.2532 9.00117L41.3015 10ZM42.7968 12.7769L41.826 12.5369C41.8234 12.5477 41.8209 12.5585 41.8186 12.5694L42.7968 12.7769ZM37.3789 38.313L36.4006 38.1055L36.3999 38.1089L37.3789 38.313ZM34.3883 39.7209L33.7942 40.5253C33.8284 40.5505 33.8642 40.5736 33.9013 40.5943L34.3883 39.7209ZM21.4649 30.1764L22.0591 29.3719L22.0479 29.3639L21.4649 30.1764ZM21.4649 29.5453L22.0479 30.3578C22.0783 30.336 22.1074 30.3125 22.1351 30.2875L21.4649 29.5453ZM36.3885 16.0685L35.7254 15.3198L35.7183 15.3263L36.3885 16.0685ZM35.3496 15.7189L34.8296 14.8647C34.8251 14.8675 34.8205 14.8703 34.816 14.8732L35.3496 15.7189ZM16.6199 27.5354L16.0863 26.6897C16.082 26.6924 16.0778 26.6951 16.0736 26.6978L16.6199 27.5354ZM16.2315 27.584L16.5548 26.6377C16.5476 26.6352 16.5403 26.6328 16.533 26.6305L16.2315 27.584ZM8.27938 25.0692L8.5809 24.1157C8.57361 24.1134 8.5663 24.1112 8.55897 24.1091L8.27938 25.0692ZM8.67747 22.4768L8.31757 21.5437L8.30679 21.548L8.67747 22.4768ZM40.4956 10.2039L40.8555 11.1369C40.8801 11.1274 40.9044 11.1169 40.9282 11.1055L40.4956 10.2039ZM41.3015 11C41.546 11 41.6922 11.0941 41.7825 11.2392C41.8873 11.4078 42.0078 11.802 41.826 12.5369L43.7675 13.017C44.0324 11.9459 43.9587 10.9516 43.481 10.1832C42.9887 9.39141 42.164 9 41.3015 9V11ZM41.8186 12.5694L36.4006 38.1055L38.3571 38.5206L43.775 12.9845L41.8186 12.5694ZM36.3999 38.1089C36.2385 38.8827 35.9839 39.0645 35.8982 39.1031C35.809 39.1434 35.5151 39.2043 34.8754 38.8475L33.9013 40.5943C34.7762 41.0822 35.7882 41.347 36.721 40.9261C37.6573 40.5035 38.1405 39.559 38.3578 38.5172L36.3999 38.1089ZM34.9824 38.9165L22.059 29.372L20.8708 30.9808L33.7942 40.5253L34.9824 38.9165ZM22.0479 29.3639C22.1268 29.4206 22.1911 29.4952 22.2355 29.5816L20.4562 30.4949C20.5569 30.691 20.7028 30.8604 20.882 30.9889L22.0479 29.3639ZM22.2355 29.5816C22.2798 29.668 22.303 29.7637 22.303 29.8609H20.303C20.303 30.0814 20.3555 30.2987 20.4562 30.4949L22.2355 29.5816ZM22.303 29.8609C22.303 29.958 22.2798 30.0537 22.2355 30.1402L20.4562 29.2269C20.3555 29.4231 20.303 29.6404 20.303 29.8609H22.303ZM22.2355 30.1402C22.1911 30.2266 22.1268 30.3012 22.0479 30.3578L20.882 28.7328C20.7028 28.8613 20.5569 29.0307 20.4562 29.2269L22.2355 30.1402ZM22.1351 30.2875L37.0587 16.8106L35.7183 15.3263L20.7947 28.8031L22.1351 30.2875ZM37.0515 16.8171C37.2773 16.6171 37.6162 16.2482 37.6377 15.7244C37.6499 15.4266 37.553 15.1378 37.361 14.9083C37.1824 14.6948 36.9625 14.5797 36.784 14.5184C36.4385 14.3996 36.0763 14.4194 35.782 14.4802C35.4684 14.545 35.1427 14.6741 34.8296 14.8647L35.8695 16.5731C36.003 16.4918 36.1155 16.4535 36.1867 16.4388C36.2771 16.4201 36.2462 16.4484 36.1338 16.4097C36.0718 16.3884 35.9438 16.3313 35.827 16.1916C35.6968 16.0359 35.6314 15.8368 35.6394 15.6424C35.6465 15.4693 35.7082 15.359 35.7301 15.3244C35.7534 15.2875 35.7619 15.2876 35.7255 15.3199L37.0515 16.8171ZM34.816 14.8732L16.0863 26.6897L17.1535 28.3812L35.8832 16.5647L34.816 14.8732ZM16.0736 26.6978C16.144 26.6519 16.2239 26.6227 16.3072 26.6122L16.5553 28.5968C16.7733 28.5695 16.9822 28.493 17.1661 28.373L16.0736 26.6978ZM16.3072 26.6122C16.3906 26.6018 16.4753 26.6105 16.5548 26.6377L15.9082 28.5303C16.1161 28.6013 16.3374 28.624 16.5553 28.5968L16.3072 26.6122ZM16.533 26.6305L8.5809 24.1157L7.97785 26.0227L15.93 28.5374L16.533 26.6305ZM8.55897 24.1091C8.2029 24.0054 8.03261 23.8921 7.97261 23.8363C7.9311 23.7977 8.01349 23.8634 7.99836 24.0081C7.98749 24.112 7.94237 24.0755 8.11347 23.9251C8.27722 23.7812 8.57243 23.5954 9.04814 23.4055L8.30679 21.548C7.69989 21.7902 7.18313 22.0801 6.79314 22.4229C6.4105 22.7592 6.06984 23.2204 6.00921 23.8C5.94432 24.4205 6.22272 24.9401 6.61055 25.3008C6.9799 25.6443 7.47228 25.8757 7.99978 26.0293L8.55897 24.1091ZM9.03734 23.4098L40.8555 11.1369L40.1358 9.2709L8.31759 21.5438L9.03734 23.4098ZM40.9282 11.1055C41.0602 11.0422 41.2036 11.0059 41.3498 10.9988L41.2532 9.00117C40.8404 9.02112 40.4357 9.12351 40.0631 9.30229L40.9282 11.1055Z" fill="white" mask="url(#path-2-outside-1_38_121)"/>
</svg>
