<svg width="19" height="26" viewBox="0 0 19 26" fill="none" xmlns="http://www.w3.org/2000/svg">
<path d="M19 21.9721V5.3073C19 3.29054 17.4078 1.69836 15.3911 1.69836H15.1788C15.1788 3.92741 13.3743 5.62574 11.2514 5.62574H7.7486C5.51955 5.62574 3.82123 3.82127 3.82123 1.69836H3.60894C1.59218 1.69836 0 3.29054 0 5.3073V22.0783C0 24.095 1.59218 25.6872 3.60894 25.6872H15.4972C17.4078 25.581 19 23.9889 19 21.9721ZM9.34078 21.7598C5.94413 21.7598 3.2905 19 3.2905 15.7095C3.2905 12.3129 6.05028 9.65926 9.34078 9.65926C12.7374 9.65926 15.3911 12.419 15.3911 15.7095C15.3911 19.1062 12.6313 21.7598 9.34078 21.7598Z" fill="#7A9DE7"/>
<path d="M11.3575 3.60894C12.419 3.60894 13.162 2.75978 13.162 1.80447C13.162 0.849162 12.3128 0 11.3575 0H7.85475C6.79329 0 6.05028 0.849162 6.05028 1.80447C6.05028 2.75978 6.89944 3.60894 7.85475 3.60894H11.3575Z" fill="#7A9DE7"/>
<path d="M11.5698 13.7989L8.27933 15.8156L7.53631 14.648C7.21787 14.1173 6.581 14.0112 6.05028 14.3296C5.51955 14.648 5.4134 15.2849 5.73184 15.8156L6.79329 17.514C7.21787 18.1508 8.17318 18.4693 8.81005 17.9385L12.5251 15.6033C13.0559 15.2849 13.162 14.648 12.8436 14.1173C12.7374 13.5866 12.1006 13.4804 11.5698 13.7989Z" fill="#7A9DE7"/>
</svg>
