<svg width="28" height="26" viewBox="0 0 28 26" fill="none" xmlns="http://www.w3.org/2000/svg">
<path d="M10.7348 14.7826H4.92424C4.37273 14.7826 3.93939 14.3493 3.93939 13.7977C3.93939 13.2561 4.37273 12.8129 4.92424 12.8129H9.57273C9.29697 12.222 9.0803 11.6015 8.92273 10.9515H4.92424C4.37273 10.9515 3.93939 10.5084 3.93939 9.96669C3.93939 9.42502 4.37273 8.98184 4.92424 8.98184H8.63712C8.62727 8.81441 8.62727 8.65684 8.62727 8.48941C8.62727 7.31744 8.82424 6.19472 9.17879 5.14093H3.54545C1.58561 5.14093 0 6.73638 0 8.68638V18.9091C0 20.7311 1.38864 22.2477 3.17121 22.425V24.503C3.17121 25.0841 3.49621 25.5962 4.01818 25.8523C4.225 25.9508 4.45151 26 4.66818 26C5.00303 26 5.32803 25.8917 5.59394 25.675L7.80985 23.9318C9.01136 22.9765 10.528 22.4447 12.0742 22.4447H18.8894C20.8394 22.4447 22.4348 20.8591 22.4348 18.9091V18.397C21.3811 18.7515 20.2583 18.9485 19.0864 18.9485C15.6788 18.9485 12.6455 17.3137 10.7348 14.7826ZM11.2174 18.6235H4.92424C4.37273 18.6235 3.93939 18.1803 3.93939 17.6387C3.93939 17.097 4.37273 16.6538 4.92424 16.6538H11.2174C11.7591 16.6538 12.2023 17.097 12.2023 17.6387C12.2023 18.1803 11.7591 18.6235 11.2174 18.6235Z" fill="#7A9DE7"/>
<path d="M19.0863 0C14.3985 0 10.597 3.81136 10.597 8.48939C10.597 13.1773 14.3985 16.9788 19.0863 16.9788C23.7644 16.9788 27.5757 13.1773 27.5757 8.48939C27.5757 3.81136 23.7644 0 19.0863 0ZM19.0765 13.9553C18.5348 13.9553 18.0917 13.5121 18.0917 12.9705C18.0917 12.4288 18.525 11.9856 19.0667 11.9856H19.0765C19.6182 11.9856 20.0613 12.4288 20.0613 12.9705C20.0613 13.5121 19.6182 13.9553 19.0765 13.9553ZM20.0712 9.4053V10.0061C20.0712 10.5477 19.628 10.9909 19.0863 10.9909C18.5447 10.9909 18.1015 10.5477 18.1015 10.0061V8.60758C18.1015 8.06591 18.5447 7.62273 19.0863 7.62273C19.5492 7.62273 19.9333 7.24848 19.9333 6.77576C19.9333 6.31288 19.5492 5.93864 19.0863 5.93864C18.6235 5.93864 18.2394 6.31288 18.2394 6.77576C18.2394 7.32727 17.7962 7.76061 17.2545 7.76061C16.7129 7.76061 16.2697 7.32727 16.2697 6.77576C16.2697 5.22955 17.5303 3.96894 19.0863 3.96894C20.6326 3.96894 21.903 5.22955 21.903 6.77576C21.903 7.98712 21.1348 9.00152 20.0712 9.4053Z" fill="#7A9DE7"/>
</svg>
