<svg width="25" height="30" viewBox="0 0 25 30" fill="none" xmlns="http://www.w3.org/2000/svg">
<path d="M12.3245 26.4085C12.2877 26.4126 12.2507 26.4146 12.2136 26.4146C12.1766 26.4146 12.1396 26.4126 12.1027 26.4085L7.54398 25.8961V28.7545C7.54398 29.236 7.96074 29.6264 8.47481 29.6264H15.9525C16.4665 29.6264 16.8833 29.236 16.8833 28.7545V25.8961L12.3245 26.4085Z" fill="#7A9DE7"/>
<path d="M22.7246 10.6701L14.6078 18.2736L17.2492 11.7127C17.2281 11.7375 17.2071 11.7624 17.1867 11.7878H17.1685C16.9978 11.9861 16.7368 12.1132 16.4437 12.1132C16.1507 12.1132 15.8897 11.9861 15.719 11.7878H15.7008C15.5995 11.6622 15.49 11.5431 15.373 11.4307L12.2136 19.2786L9.05407 11.4308C8.93716 11.5431 8.82763 11.6622 8.72635 11.7878H8.70817C8.53752 11.9861 8.27645 12.1133 7.98343 12.1133C7.6904 12.1133 7.42927 11.9861 7.25868 11.7878H7.24044C7.22002 11.7624 7.19905 11.7375 7.17795 11.7127L9.8194 18.2736L1.70262 10.6701C1.14003 10.9381 0.646749 11.3163 0.268646 11.7845C0.29049 11.8102 0.313574 11.8352 0.338955 11.8589L9.96647 20.8776H8.47484C7.96078 20.8776 7.54401 21.268 7.54401 21.7496V24.1395L12.2137 24.6645L16.8833 24.1395V21.7496C16.8833 21.268 16.4666 20.8776 15.9525 20.8776H14.4609L24.0883 11.8589C24.1136 11.8352 24.1367 11.8102 24.1586 11.7846C23.7805 11.3163 23.2872 10.9381 22.7246 10.6701Z" fill="#7A9DE7"/>
<path d="M12.2136 8.46938C13.3704 8.46938 14.4882 8.76288 15.4462 9.29176C15.2999 7.17503 14.9157 5.23439 14.3282 3.69467C13.5767 1.72472 12.7193 1.02576 12.2136 1.02576C11.7078 1.02576 10.8505 1.72472 10.0989 3.69467C9.51138 5.23439 9.12719 7.17503 8.98087 9.29176C9.93894 8.76294 11.0567 8.46938 12.2136 8.46938Z" fill="#7A9DE7"/>
<path d="M7.11151 9.36253C7.25976 7.01305 7.68502 4.83982 8.34585 3.10786C8.95238 1.51803 9.64901 0.559918 10.3314 0C5.14032 0.759715 1.0281 4.60979 0.213623 9.47158C1.23543 8.82906 2.4707 8.46946 3.7532 8.46946C4.96086 8.46946 6.12638 8.78884 7.11151 9.36253Z" fill="#7A9DE7"/>
<path d="M16.0813 3.10786C16.7422 4.83988 17.1674 7.01311 17.3157 9.36259C18.3008 8.78884 19.4663 8.46952 20.674 8.46952C21.9565 8.46952 23.1918 8.82912 24.2136 9.47164C23.3992 4.60985 19.2869 0.759715 14.0958 0C14.7782 0.559918 15.4748 1.51803 16.0813 3.10786Z" fill="#7A9DE7"/>
</svg>
